<svg id="SvgjsSvg1018" width="160px" height="71px" xmlns="http://www.w3.org/2000/svg" version="1.1" xmlns:xlink="http://www.w3.org/1999/xlink" xmlns:svgjs="http://svgjs.com/svgjs" viewBox="0 0 329.921875 150"><defs id="SvgjsDefs1019"></defs><g id="SvgjsG1021" transform="rotate(0 38.546875 73.5)"><svg height="147" viewBox="0 0 50.251075744628906 95.80599975585938" xmlns="http://www.w3.org/2000/svg" version="1.1" xmlns:xlink="http://www.w3.org/1999/xlink" xmlns:svgjs="http://svgjs.com/svgjs" preserveAspectRatio="none" width="77.09375" x="0" y="0"><g><svg data-color="1" xmlns="http://www.w3.org/2000/svg" xmlns:xlink="http://www.w3.org/1999/xlink" version="1.1" x="0px" y="0px" viewBox="24.87438201904297 2.194000005722046 50.251075744628906 95.80599975585938" enable-background="new 0 0 100 100" xml:space="preserve" width="50.251075744628906" height="95.80599975585938" fill="#FFFFFF"><path d="M50,70.26c2.402-6.305,6.903-13.727,15.538-20.8C65.404,23.326,50,2.194,50,2.194S34.594,23.324,34.458,49.456  C43.209,56.62,47.659,64.102,50,70.26z"></path><path d="M74.531,46.856C68.384,50.821,52.043,61.033,50,83.531c-2.042-19.434-14.298-30.668-24.533-36.675  c0,0-2.827,15.57,3.868,29.527C36.026,90.344,49.702,98,49.702,98h0.595c0,0,13.678-7.656,20.371-21.617  C77.362,62.426,74.531,46.856,74.531,46.856z"></path></svg></g><defs id="SvgjsDefs1020"></defs></svg></g><g id="SvgjsG1023" transform="rotate(0 212.7578125 75.5)"><svg xmlns="http://www.w3.org/2000/svg" xmlns:xlink="http://www.w3.org/1999/xlink" width="234.328125" viewBox="2.809999942779541 19.559999465942383 234.33999633789062 47.980003356933594" overflow="visible" style="overflow: visible;" transform="" version="1.1" xmlns:svgjs="http://svgjs.com/svgjs" preserveAspectRatio="none" height="47.96875" x="95.59375" y="51.515625" fill="#000000" stroke="none"><path stroke="none" fill="#FFFFFF" d="M15.41 67.54L15.41 67.54Q9.71 67.54 6.26 64.09L6.26 64.09L6.26 64.09Q2.81 60.63 2.81 54.94L2.81 54.94L2.81 32.09L2.81 32.09Q2.81 26.33 6.26 22.95L6.26 22.95L6.26 22.95Q9.71 19.56 15.41 19.56L15.41 19.56L15.41 19.56Q21.17 19.56 24.66 22.95L24.66 22.95L24.66 22.95Q28.14 26.33 28.14 32.09L28.14 32.09L28.14 32.90L28.14 32.90Q28.14 33.23 27.91 33.50L27.91 33.50L27.91 33.50Q27.67 33.77 27.34 33.77L27.34 33.77L21.11 34.04L21.11 34.04Q20.30 34.04 20.30 33.23L20.30 33.23L20.30 31.56L20.30 31.56Q20.30 29.21 18.96 27.74L18.96 27.74L18.96 27.74Q17.62 26.26 15.41 26.26L15.41 26.26L15.41 26.26Q13.27 26.26 11.93 27.74L11.93 27.74L11.93 27.74Q10.59 29.21 10.59 31.56L10.59 31.56L10.59 55.54L10.59 55.54Q10.59 57.89 11.93 59.36L11.93 59.36L11.93 59.36Q13.27 60.84 15.41 60.84L15.41 60.84L15.41 60.84Q17.62 60.84 18.96 59.36L18.96 59.36L18.96 59.36Q20.30 57.89 20.30 55.54L20.30 55.54L20.30 53.87L20.30 53.87Q20.30 53.53 20.54 53.30L20.54 53.30L20.54 53.30Q20.77 53.06 21.11 53.06L21.11 53.06L27.34 53.33L27.34 53.33Q27.67 53.33 27.91 53.57L27.91 53.57L27.91 53.57Q28.14 53.80 28.14 54.14L28.14 54.14L28.14 54.94L28.14 54.94Q28.14 60.63 24.66 64.09L24.66 64.09L24.66 64.09Q21.17 67.54 15.41 67.54L15.41 67.54ZM46.09 67.54L46.09 67.54Q40.53 67.54 37.35 64.62L37.35 64.62L37.35 64.62Q34.17 61.71 34.17 56.68L34.17 56.68L34.17 43.08L34.17 43.08Q34.17 38.19 37.38 35.21L37.38 35.21L37.38 35.21Q40.60 32.23 46.09 32.23L46.09 32.23L46.09 32.23Q51.65 32.23 54.87 35.21L54.87 35.21L54.87 35.21Q58.08 38.19 58.08 43.08L58.08 43.08L58.08 56.68L58.08 56.68Q58.08 61.71 54.90 64.62L54.90 64.62L54.90 64.62Q51.72 67.54 46.09 67.54L46.09 67.54ZM46.09 60.84L46.09 60.84Q47.97 60.84 49.14 59.50L49.14 59.50L49.14 59.50Q50.31 58.16 50.31 56.08L50.31 56.08L50.31 43.68L50.31 43.68Q50.31 41.61 49.14 40.27L49.14 40.27L49.14 40.27Q47.97 38.93 46.09 38.93L46.09 38.93L46.09 38.93Q44.22 38.93 43.08 40.23L43.08 40.23L43.08 40.23Q41.94 41.54 41.94 43.68L41.94 43.68L41.94 56.08L41.94 56.08Q41.94 58.22 43.08 59.53L43.08 59.53L43.08 59.53Q44.22 60.84 46.09 60.84L46.09 60.84ZM79.99 20.90L79.99 20.90Q79.99 20.57 80.22 20.33L80.22 20.33L80.22 20.33Q80.46 20.10 80.79 20.10L80.79 20.10L86.96 20.10L86.96 20.10Q87.29 20.10 87.53 20.33L87.53 20.33L87.53 20.33Q87.76 20.57 87.76 20.90L87.76 20.90L87.76 66.20L87.76 66.20Q87.76 66.53 87.53 66.77L87.53 66.77L87.53 66.77Q87.29 67 86.96 67L86.96 67L80.79 67L80.79 67Q80.46 67 80.22 66.77L80.22 66.77L80.22 66.77Q79.99 66.53 79.99 66.20L79.99 66.20L79.99 65.12L79.99 65.12Q79.99 64.92 79.85 64.89L79.85 64.89L79.85 64.89Q79.72 64.86 79.59 64.99L79.59 64.99L79.59 64.99Q77.24 67.54 73.42 67.54L73.42 67.54L73.42 67.54Q69.07 67.54 66.66 64.59L66.66 64.59L66.66 64.59Q64.24 61.64 64.11 56.68L64.11 56.68L64.11 43.01L64.11 43.01Q64.24 37.99 66.69 35.11L66.69 35.11L66.69 35.11Q69.13 32.23 73.42 32.23L73.42 32.23L73.42 32.23Q77.24 32.23 79.59 34.77L79.59 34.77L79.59 34.77Q79.72 34.91 79.85 34.87L79.85 34.87L79.85 34.87Q79.99 34.84 79.99 34.64L79.99 34.64L79.99 20.90ZM75.90 60.84L75.90 60.84Q77.71 60.84 78.85 59.50L78.85 59.50L78.85 59.50Q79.99 58.16 79.99 55.95L79.99 55.95L79.99 43.82L79.99 43.82Q79.99 41.61 78.85 40.27L78.85 40.27L78.85 40.27Q77.71 38.93 75.90 38.93L75.90 38.93L75.90 38.93Q74.09 38.93 72.95 40.27L72.95 40.27L72.95 40.27Q71.81 41.61 71.81 43.82L71.81 43.82L71.81 55.95L71.81 55.95Q71.81 58.09 72.95 59.46L72.95 59.46L72.95 59.46Q74.09 60.84 75.90 60.84L75.90 60.84ZM118.17 51.99L118.17 51.99Q118.17 52.33 117.94 52.56L117.94 52.56L117.94 52.56Q117.70 52.80 117.37 52.80L117.37 52.80L102.50 52.80L102.50 52.80Q102.16 52.80 102.16 53.13L102.16 53.13L102.16 56.08L102.16 56.08Q102.16 58.22 103.30 59.56L103.30 59.56L103.30 59.56Q104.44 60.90 106.25 60.90L106.25 60.90L106.25 60.90Q107.79 60.90 108.86 59.90L108.86 59.90L108.86 59.90Q109.93 58.89 110.33 57.35L110.33 57.35L110.33 57.35Q110.54 56.62 111.21 56.68L111.21 56.68L117.24 57.08L117.24 57.08Q118.04 57.22 117.97 57.95L117.97 57.95L117.97 57.95Q117.44 62.51 114.45 65.02L114.45 65.02L114.45 65.02Q111.47 67.54 106.25 67.54L106.25 67.54L106.25 67.54Q100.75 67.54 97.57 64.62L97.57 64.62L97.57 64.62Q94.39 61.71 94.39 56.68L94.39 56.68L94.39 43.08L94.39 43.08Q94.39 38.19 97.57 35.21L97.57 35.21L97.57 35.21Q100.75 32.23 106.25 32.23L106.25 32.23L106.25 32.23Q111.74 32.23 114.96 35.21L114.96 35.21L114.96 35.21Q118.17 38.19 118.17 43.08L118.17 43.08L118.17 51.99ZM106.25 38.93L106.25 38.93Q104.44 38.93 103.30 40.27L103.30 40.27L103.30 40.27Q102.16 41.61 102.16 43.68L102.16 43.68L102.16 46.63L102.16 46.63Q102.16 46.97 102.50 46.97L102.50 46.97L110.07 46.97L110.07 46.97Q110.40 46.97 110.40 46.63L110.40 46.63L110.40 43.68L110.40 43.68Q110.40 41.54 109.26 40.23L109.26 40.23L109.26 40.23Q108.12 38.93 106.25 38.93L106.25 38.93ZM136.39 67.54L136.39 67.54Q130.90 67.54 127.48 64.15L127.48 64.15L127.48 64.15Q124.06 60.77 124.06 55.41L124.06 55.41L124.06 53.53L124.06 53.53Q124.06 53.20 124.30 52.96L124.30 52.96L124.30 52.96Q124.53 52.73 124.87 52.73L124.87 52.73L130.90 52.73L130.90 52.73Q131.23 52.73 131.47 52.96L131.47 52.96L131.47 52.96Q131.70 53.20 131.70 53.53L131.70 53.53L131.70 55.01L131.70 55.01Q131.70 57.62 133.04 59.23L133.04 59.23L133.04 59.23Q134.38 60.84 136.39 60.84L136.39 60.84L136.39 60.84Q138.47 60.84 139.81 59.33L139.81 59.33L139.81 59.33Q141.15 57.82 141.15 55.34L141.15 55.34L141.15 55.34Q141.15 53.67 140.41 52.36L140.41 52.36L140.41 52.36Q139.68 51.05 138.37 49.91L138.37 49.91L138.37 49.91Q137.06 48.78 134.11 46.63L134.11 46.63L134.11 46.63Q130.76 44.22 128.72 42.34L128.72 42.34L128.72 42.34Q126.68 40.47 125.30 37.82L125.30 37.82L125.30 37.82Q123.93 35.17 123.93 31.69L123.93 31.69L123.93 31.69Q123.93 26.13 127.28 22.85L127.28 22.85L127.28 22.85Q130.63 19.56 136.06 19.56L136.06 19.56L136.06 19.56Q141.69 19.56 145.10 23.01L145.10 23.01L145.10 23.01Q148.52 26.46 148.52 32.16L148.52 32.16L148.52 33.77L148.52 33.77Q148.52 34.10 148.28 34.34L148.28 34.34L148.28 34.34Q148.05 34.57 147.72 34.57L147.72 34.57L141.62 34.57L141.62 34.57Q141.28 34.57 141.05 34.34L141.05 34.34L141.05 34.34Q140.81 34.10 140.81 33.77L140.81 33.77L140.81 32.03L140.81 32.03Q140.81 29.41 139.51 27.84L139.51 27.84L139.51 27.84Q138.20 26.26 136.06 26.26L136.06 26.26L136.06 26.26Q134.11 26.26 132.84 27.70L132.84 27.70L132.84 27.70Q131.57 29.14 131.57 31.69L131.57 31.69L131.57 31.69Q131.57 34.10 132.94 35.78L132.94 35.78L132.94 35.78Q134.32 37.45 138.34 40.40L138.34 40.40L138.34 40.40Q142.42 43.48 144.50 45.36L144.50 45.36L144.50 45.36Q146.58 47.23 147.72 49.51L147.72 49.51L147.72 49.51Q148.85 51.79 148.85 54.94L148.85 54.94L148.85 54.94Q148.85 60.63 145.40 64.09L145.40 64.09L145.40 64.09Q141.95 67.54 136.39 67.54L136.39 67.54ZM178.19 51.99L178.19 51.99Q178.19 52.33 177.96 52.56L177.96 52.56L177.96 52.56Q177.73 52.80 177.39 52.80L177.39 52.80L162.52 52.80L162.52 52.80Q162.18 52.80 162.18 53.13L162.18 53.13L162.18 56.08L162.18 56.08Q162.18 58.22 163.32 59.56L163.32 59.56L163.32 59.56Q164.46 60.90 166.27 60.90L166.27 60.90L166.27 60.90Q167.81 60.90 168.88 59.90L168.88 59.90L168.88 59.90Q169.95 58.89 170.36 57.35L170.36 57.35L170.36 57.35Q170.56 56.62 171.23 56.68L171.23 56.68L177.26 57.08L177.26 57.08Q178.06 57.22 177.99 57.95L177.99 57.95L177.99 57.95Q177.46 62.51 174.48 65.02L174.48 65.02L174.48 65.02Q171.50 67.54 166.27 67.54L166.27 67.54L166.27 67.54Q160.78 67.54 157.59 64.62L157.59 64.62L157.59 64.62Q154.41 61.71 154.41 56.68L154.41 56.68L154.41 43.08L154.41 43.08Q154.41 38.19 157.59 35.21L157.59 35.21L157.59 35.21Q160.78 32.23 166.27 32.23L166.27 32.23L166.27 32.23Q171.76 32.23 174.98 35.21L174.98 35.21L174.98 35.21Q178.19 38.19 178.19 43.08L178.19 43.08L178.19 51.99ZM166.27 38.93L166.27 38.93Q164.46 38.93 163.32 40.27L163.32 40.27L163.32 40.27Q162.18 41.61 162.18 43.68L162.18 43.68L162.18 46.63L162.18 46.63Q162.18 46.97 162.52 46.97L162.52 46.97L170.09 46.97L170.09 46.97Q170.42 46.97 170.42 46.63L170.42 46.63L170.42 43.68L170.42 43.68Q170.42 41.54 169.28 40.23L169.28 40.23L169.28 40.23Q168.15 38.93 166.27 38.93L166.27 38.93ZM207.74 51.99L207.74 51.99Q207.74 52.33 207.50 52.56L207.50 52.56L207.50 52.56Q207.27 52.80 206.93 52.80L206.93 52.80L192.06 52.80L192.06 52.80Q191.72 52.80 191.72 53.13L191.72 53.13L191.72 56.08L191.72 56.08Q191.72 58.22 192.86 59.56L192.86 59.56L192.86 59.56Q194.00 60.90 195.81 60.90L195.81 60.90L195.81 60.90Q197.35 60.90 198.42 59.90L198.42 59.90L198.42 59.90Q199.50 58.89 199.90 57.35L199.90 57.35L199.90 57.35Q200.10 56.62 200.77 56.68L200.77 56.68L206.80 57.08L206.80 57.08Q207.60 57.22 207.54 57.95L207.54 57.95L207.54 57.95Q207 62.51 204.02 65.02L204.02 65.02L204.02 65.02Q201.04 67.54 195.81 67.54L195.81 67.54L195.81 67.54Q190.32 67.54 187.13 64.62L187.13 64.62L187.13 64.62Q183.95 61.71 183.95 56.68L183.95 56.68L183.95 43.08L183.95 43.08Q183.95 38.19 187.13 35.21L187.13 35.21L187.13 35.21Q190.32 32.23 195.81 32.23L195.81 32.23L195.81 32.23Q201.31 32.23 204.52 35.21L204.52 35.21L204.52 35.21Q207.74 38.19 207.74 43.08L207.74 43.08L207.74 51.99ZM195.81 38.93L195.81 38.93Q194.00 38.93 192.86 40.27L192.86 40.27L192.86 40.27Q191.72 41.61 191.72 43.68L191.72 43.68L191.72 46.63L191.72 46.63Q191.72 46.97 192.06 46.97L192.06 46.97L199.63 46.97L199.63 46.97Q199.97 46.97 199.97 46.63L199.97 46.63L199.97 43.68L199.97 43.68Q199.97 41.54 198.83 40.23L198.83 40.23L198.83 40.23Q197.69 38.93 195.81 38.93L195.81 38.93ZM229.37 20.90L229.37 20.90Q229.37 20.57 229.61 20.33L229.61 20.33L229.61 20.33Q229.84 20.10 230.18 20.10L230.18 20.10L236.34 20.10L236.34 20.10Q236.68 20.10 236.91 20.33L236.91 20.33L236.91 20.33Q237.15 20.57 237.15 20.90L237.15 20.90L237.15 66.20L237.15 66.20Q237.15 66.53 236.91 66.77L236.91 66.77L236.91 66.77Q236.68 67 236.34 67L236.34 67L230.18 67L230.18 67Q229.84 67 229.61 66.77L229.61 66.77L229.61 66.77Q229.37 66.53 229.37 66.20L229.37 66.20L229.37 65.12L229.37 65.12Q229.37 64.92 229.24 64.89L229.24 64.89L229.24 64.89Q229.11 64.86 228.97 64.99L228.97 64.99L228.97 64.99Q226.63 67.54 222.81 67.54L222.81 67.54L222.81 67.54Q218.45 67.54 216.04 64.59L216.04 64.59L216.04 64.59Q213.63 61.64 213.49 56.68L213.49 56.68L213.49 43.01L213.49 43.01Q213.63 37.99 216.07 35.11L216.07 35.11L216.07 35.11Q218.52 32.23 222.81 32.23L222.81 32.23L222.81 32.23Q226.63 32.23 228.97 34.77L228.97 34.77L228.97 34.77Q229.11 34.91 229.24 34.87L229.24 34.87L229.24 34.87Q229.37 34.84 229.37 34.64L229.37 34.64L229.37 20.90ZM225.29 60.84L225.29 60.84Q227.09 60.84 228.23 59.50L228.23 59.50L228.23 59.50Q229.37 58.16 229.37 55.95L229.37 55.95L229.37 43.82L229.37 43.82Q229.37 41.61 228.23 40.27L228.23 40.27L228.23 40.27Q227.09 38.93 225.29 38.93L225.29 38.93L225.29 38.93Q223.48 38.93 222.34 40.27L222.34 40.27L222.34 40.27Q221.20 41.61 221.20 43.82L221.20 43.82L221.20 55.95L221.20 55.95Q221.20 58.09 222.34 59.46L222.34 59.46L222.34 59.46Q223.48 60.84 225.29 60.84L225.29 60.84Z" transform="rotate(0 119.97999811172485 43.55000114440918)"></path><defs id="SvgjsDefs1022"></defs></svg></g></svg>